<svg width="687" height="687" viewBox="0 0 687 687" fill="none" xmlns="http://www.w3.org/2000/svg">
<g clip-path="url(#clip0_2938_8005)">
<path d="M687 0H0V687H687V0Z" fill="white"/>
<path d="M269.03 395.159H251.03V426.761H207.474V395.159H142.209V362.733L210.222 263.255H251.03V362.183H269.03V395.159ZM207.474 362.183V343.222C207.474 339.65 207.612 334.841 207.887 328.795C208.161 322.75 208.299 319.589 208.436 319.177H207.2C204.726 324.948 201.841 330.307 198.543 335.253L180.407 362.183H207.474Z" fill="#FBCB43"/>
<path d="M398.735 345.286C398.735 374.277 393.926 395.437 384.171 408.902C374.415 422.367 359.576 429.1 339.653 429.1C320.142 429.1 305.441 422.092 295.41 407.94C285.518 393.925 280.571 372.903 280.571 345.286C280.571 316.157 285.38 294.86 295.136 281.257C304.891 267.655 319.73 260.922 339.653 260.922C359.164 260.922 373.866 267.93 383.759 282.082C393.789 296.234 398.735 317.394 398.735 345.286ZM324.539 345.286C324.539 363.835 325.638 376.476 327.974 383.483C330.31 390.353 334.157 393.925 339.653 393.925C345.149 393.925 349.134 390.353 351.332 383.208C353.668 376.063 354.767 363.423 354.767 345.423C354.767 327.286 353.668 314.646 351.332 307.363C348.996 300.081 345.149 296.509 339.653 296.509C334.157 296.509 330.31 300.081 327.974 307.089C325.776 313.821 324.539 326.599 324.539 345.286Z" fill="#FBCB43"/>
<path d="M537.646 395.159H519.646V426.761H475.953V395.159H410.688V362.733L478.701 263.255H519.509V362.183H537.508V395.159H537.646ZM475.953 362.183V343.222C475.953 339.65 476.091 334.841 476.365 328.795C476.64 322.75 476.778 319.589 476.915 319.177H475.678C473.205 324.948 470.32 330.307 467.022 335.253L448.885 362.183H475.953Z" fill="#FBCB43"/>
<path d="M76.6693 299.527H142.759" stroke="black" stroke-width="2.97169" stroke-miterlimit="10" stroke-linecap="round" stroke-linejoin="round"/>
<path d="M158.56 299.527H172.713" stroke="black" stroke-width="2.97169" stroke-miterlimit="10" stroke-linecap="round" stroke-linejoin="round"/>
<path d="M64.5777 280.979H183.017" stroke="black" stroke-width="2.97169" stroke-miterlimit="10" stroke-linecap="round" stroke-linejoin="round"/>
<path d="M54.8227 280.979H45.0673" stroke="black" stroke-width="2.97169" stroke-miterlimit="10" stroke-linecap="round" stroke-linejoin="round"/>
<path d="M64.5777 263.259H103.874" stroke="black" stroke-width="2.97169" stroke-miterlimit="10" stroke-linecap="round" stroke-linejoin="round"/>
<path d="M114.454 263.259H197.032" stroke="black" stroke-width="2.97169" stroke-miterlimit="10" stroke-linecap="round" stroke-linejoin="round"/>
<path d="M544.103 447.239H614.864" stroke="black" stroke-width="2.97169" stroke-miterlimit="10" stroke-linecap="round" stroke-linejoin="round"/>
<path d="M626.406 447.239H636.574" stroke="black" stroke-width="2.97169" stroke-miterlimit="10" stroke-linecap="round" stroke-linejoin="round"/>
<path d="M558.256 428.69H651.001" stroke="black" stroke-width="2.97169" stroke-miterlimit="10" stroke-linecap="round" stroke-linejoin="round"/>
<path d="M551.248 428.69H544.103" stroke="black" stroke-width="2.97169" stroke-miterlimit="10" stroke-linecap="round" stroke-linejoin="round"/>
<path d="M544.103 410.97H586.697" stroke="black" stroke-width="2.97169" stroke-miterlimit="10" stroke-linecap="round" stroke-linejoin="round"/>
<path d="M594.392 410.97H626.406" stroke="black" stroke-width="2.97169" stroke-miterlimit="10" stroke-linecap="round" stroke-linejoin="round"/>
<path d="M277.548 394.603H259.548V426.205H215.855V394.603H150.59V362.176L218.603 262.699H259.411V361.627H277.548V394.603ZM215.855 361.627V342.666C215.855 339.093 215.993 334.284 216.267 328.239C216.542 322.193 216.68 319.033 216.817 318.621H215.718C213.245 324.391 210.359 329.75 207.062 334.696L188.925 361.627H215.855Z" stroke="black" stroke-width="4.48954" stroke-miterlimit="10"/>
<path d="M407.253 344.729C407.253 373.72 402.444 394.88 392.689 408.345C382.934 421.81 368.094 428.543 348.171 428.543C328.661 428.543 313.959 421.536 303.929 407.383C294.036 393.369 289.089 372.346 289.089 344.729C289.089 315.6 293.898 294.303 303.654 280.701C313.409 267.098 328.248 260.365 348.171 260.365C367.682 260.365 382.384 267.373 392.277 281.525C402.307 295.677 407.253 316.699 407.253 344.729ZM333.057 344.729C333.057 363.278 334.157 375.919 336.492 382.926C338.828 389.796 342.675 393.369 348.171 393.369C353.667 393.369 357.652 389.796 359.85 382.651C362.186 375.507 363.285 362.866 363.285 344.866C363.285 326.73 362.186 314.089 359.85 306.807C357.515 299.524 353.667 295.952 348.171 295.952C342.675 295.952 338.828 299.524 336.492 306.532C334.157 313.127 333.057 326.043 333.057 344.729Z" stroke="black" stroke-width="4.48954" stroke-miterlimit="10"/>
<path d="M546.165 394.603H528.166V426.205H484.473V394.603H419.208V362.176L487.221 262.699H528.028V361.627H546.028V394.603H546.165ZM484.473 361.627V342.666C484.473 339.093 484.61 334.284 484.885 328.239C485.16 322.193 485.297 319.033 485.434 318.621H484.198C481.725 324.391 478.839 329.75 475.542 334.696L457.542 361.627H484.473Z" stroke="black" stroke-width="4.48954" stroke-miterlimit="10"/>
<path d="M195.14 491.749C194.2 491.749 193.483 491.49 192.988 490.97C192.493 490.451 192.246 489.721 192.246 488.782V468.192C192.246 467.228 192.493 466.498 192.988 466.003C193.507 465.509 194.237 465.261 195.177 465.261H204.192C207.11 465.261 209.361 466.003 210.944 467.487C212.526 468.947 213.318 470.987 213.318 473.608C213.318 476.23 212.526 478.283 210.944 479.767C209.361 481.251 207.11 481.993 204.192 481.993H197.996V488.782C197.996 489.721 197.749 490.451 197.254 490.97C196.784 491.49 196.08 491.749 195.14 491.749ZM197.996 477.541H203.227C204.711 477.541 205.836 477.207 206.603 476.539C207.395 475.871 207.79 474.895 207.79 473.608C207.79 472.322 207.395 471.358 206.603 470.715C205.836 470.072 204.711 469.75 203.227 469.75H197.996V477.541ZM221.724 491.824C220.389 491.824 219.189 491.564 218.126 491.045C217.062 490.525 216.234 489.82 215.64 488.93C215.047 488.04 214.75 487.038 214.75 485.925C214.75 484.589 215.096 483.538 215.789 482.772C216.481 481.98 217.606 481.424 219.165 481.102C220.723 480.756 222.788 480.583 225.36 480.583H227.326V483.477H225.397C224.136 483.477 223.109 483.551 222.318 483.699C221.551 483.823 220.995 484.045 220.648 484.367C220.327 484.688 220.166 485.134 220.166 485.702C220.166 486.395 220.401 486.964 220.871 487.409C221.366 487.854 222.071 488.077 222.986 488.077C223.703 488.077 224.334 487.916 224.878 487.594C225.446 487.248 225.892 486.791 226.213 486.222C226.535 485.628 226.695 484.96 226.695 484.219V479.952C226.695 478.864 226.448 478.097 225.953 477.652C225.459 477.182 224.618 476.947 223.431 476.947C222.763 476.947 222.033 477.034 221.242 477.207C220.475 477.355 219.622 477.615 218.682 477.986C218.138 478.233 217.656 478.295 217.235 478.172C216.815 478.023 216.493 477.776 216.271 477.43C216.048 477.059 215.937 476.663 215.937 476.242C215.937 475.797 216.061 475.377 216.308 474.981C216.555 474.561 216.963 474.252 217.532 474.054C218.695 473.584 219.783 473.262 220.797 473.089C221.836 472.916 222.788 472.829 223.653 472.829C225.558 472.829 227.116 473.114 228.328 473.683C229.564 474.227 230.492 475.08 231.11 476.242C231.728 477.38 232.038 478.852 232.038 480.657V488.893C232.038 489.808 231.815 490.513 231.37 491.007C230.925 491.502 230.282 491.749 229.441 491.749C228.6 491.749 227.944 491.502 227.474 491.007C227.029 490.513 226.807 489.808 226.807 488.893V487.52L227.066 487.743C226.918 488.584 226.596 489.313 226.102 489.932C225.632 490.525 225.026 490.995 224.284 491.341C223.542 491.663 222.689 491.824 221.724 491.824ZM244.971 498.501C243.636 498.501 242.35 498.39 241.113 498.167C239.901 497.945 238.825 497.611 237.886 497.166C237.317 496.918 236.909 496.597 236.661 496.201C236.439 495.805 236.34 495.385 236.365 494.94C236.414 494.495 236.563 494.099 236.81 493.753C237.082 493.406 237.416 493.159 237.811 493.011C238.207 492.887 238.628 492.924 239.073 493.122C240.161 493.617 241.163 493.938 242.078 494.087C243.018 494.235 243.821 494.309 244.489 494.309C246.072 494.309 247.259 493.951 248.051 493.233C248.842 492.516 249.238 491.416 249.238 489.932V487.112H249.572C249.201 488.25 248.434 489.177 247.271 489.895C246.109 490.612 244.823 490.97 243.413 490.97C241.781 490.97 240.359 490.599 239.147 489.857C237.935 489.091 236.995 488.027 236.328 486.667C235.66 485.282 235.326 483.687 235.326 481.881C235.326 480.521 235.511 479.284 235.882 478.172C236.278 477.059 236.822 476.106 237.515 475.315C238.232 474.524 239.085 473.918 240.074 473.497C241.088 473.052 242.201 472.829 243.413 472.829C244.872 472.829 246.159 473.188 247.271 473.905C248.409 474.598 249.163 475.513 249.534 476.651L249.163 477.838V475.723C249.163 474.808 249.398 474.115 249.868 473.646C250.363 473.151 251.055 472.904 251.946 472.904C252.836 472.904 253.516 473.151 253.986 473.646C254.456 474.115 254.691 474.808 254.691 475.723V489.301C254.691 492.343 253.85 494.631 252.168 496.164C250.511 497.722 248.112 498.501 244.971 498.501ZM245.083 486.778C245.924 486.778 246.641 486.58 247.234 486.185C247.853 485.789 248.335 485.233 248.681 484.515C249.027 483.773 249.201 482.895 249.201 481.881C249.201 480.348 248.817 479.161 248.051 478.32C247.309 477.454 246.319 477.022 245.083 477.022C244.242 477.022 243.512 477.219 242.894 477.615C242.276 477.986 241.793 478.543 241.447 479.284C241.126 480.002 240.965 480.867 240.965 481.881C240.965 483.415 241.336 484.614 242.078 485.48C242.82 486.345 243.821 486.778 245.083 486.778ZM268.5 491.824C266.349 491.824 264.494 491.44 262.936 490.674C261.402 489.882 260.215 488.782 259.374 487.372C258.558 485.937 258.15 484.256 258.15 482.327C258.15 480.447 258.546 478.802 259.337 477.392C260.128 475.958 261.229 474.845 262.639 474.054C264.073 473.238 265.693 472.829 267.499 472.829C268.809 472.829 269.997 473.052 271.06 473.497C272.123 473.918 273.039 474.536 273.805 475.352C274.572 476.144 275.153 477.12 275.549 478.283C275.945 479.421 276.142 480.694 276.142 482.104C276.142 482.574 275.994 482.932 275.697 483.18C275.4 483.402 274.968 483.514 274.399 483.514H262.75V480.62H272.099L271.505 481.139C271.505 480.125 271.357 479.284 271.06 478.617C270.763 477.924 270.33 477.405 269.762 477.059C269.217 476.712 268.537 476.539 267.721 476.539C266.806 476.539 266.027 476.749 265.384 477.17C264.741 477.59 264.246 478.196 263.9 478.988C263.554 479.779 263.381 480.731 263.381 481.844V482.141C263.381 484.021 263.814 485.406 264.679 486.296C265.569 487.186 266.88 487.632 268.612 487.632C269.205 487.632 269.885 487.557 270.652 487.409C271.419 487.261 272.136 487.026 272.804 486.704C273.372 486.432 273.879 486.345 274.325 486.444C274.77 486.519 275.116 486.716 275.363 487.038C275.611 487.359 275.747 487.73 275.771 488.151C275.821 488.571 275.734 488.992 275.512 489.412C275.289 489.808 274.918 490.142 274.399 490.414C273.558 490.884 272.606 491.23 271.542 491.453C270.504 491.7 269.49 491.824 268.5 491.824ZM292.915 491.749C292.05 491.749 291.382 491.514 290.912 491.045C290.467 490.55 290.244 489.857 290.244 488.967V467.821C290.244 466.881 290.467 466.164 290.912 465.67C291.382 465.175 292 464.928 292.767 464.928C293.435 464.928 293.942 465.064 294.288 465.336C294.659 465.583 295.079 466.003 295.549 466.597L308.571 483.18H307.569V467.673C307.569 466.807 307.792 466.139 308.237 465.67C308.707 465.175 309.374 464.928 310.24 464.928C311.106 464.928 311.761 465.175 312.206 465.67C312.676 466.139 312.911 466.807 312.911 467.673V489.078C312.911 489.895 312.701 490.55 312.28 491.045C311.86 491.514 311.291 491.749 310.574 491.749C309.881 491.749 309.325 491.613 308.905 491.341C308.509 491.069 308.076 490.636 307.606 490.043L294.622 473.46H295.586V488.967C295.586 489.857 295.364 490.55 294.919 491.045C294.473 491.514 293.806 491.749 292.915 491.749ZM326.449 491.824C324.496 491.824 322.789 491.44 321.33 490.674C319.895 489.907 318.782 488.806 317.991 487.372C317.2 485.937 316.804 484.243 316.804 482.289C316.804 480.83 317.026 479.519 317.472 478.357C317.917 477.195 318.56 476.205 319.401 475.389C320.266 474.548 321.293 473.918 322.48 473.497C323.667 473.052 324.99 472.829 326.449 472.829C328.403 472.829 330.097 473.213 331.532 473.979C332.991 474.746 334.116 475.834 334.908 477.244C335.724 478.654 336.132 480.336 336.132 482.289C336.132 483.773 335.897 485.097 335.427 486.259C334.982 487.421 334.339 488.423 333.498 489.264C332.657 490.105 331.631 490.748 330.419 491.193C329.232 491.613 327.909 491.824 326.449 491.824ZM326.449 487.632C327.265 487.632 327.97 487.434 328.564 487.038C329.157 486.642 329.627 486.061 329.974 485.294C330.32 484.503 330.493 483.501 330.493 482.289C330.493 480.484 330.122 479.161 329.38 478.32C328.638 477.454 327.661 477.022 326.449 477.022C325.658 477.022 324.953 477.207 324.335 477.578C323.741 477.949 323.271 478.53 322.925 479.322C322.604 480.088 322.443 481.078 322.443 482.289C322.443 484.095 322.814 485.443 323.556 486.333C324.298 487.199 325.262 487.632 326.449 487.632ZM348.299 491.824C346.593 491.824 345.159 491.539 343.996 490.97C342.858 490.402 342.005 489.573 341.436 488.485C340.892 487.397 340.62 486.024 340.62 484.367V477.392H339.062C338.37 477.392 337.825 477.207 337.43 476.836C337.059 476.465 336.873 475.958 336.873 475.315C336.873 474.622 337.059 474.103 337.43 473.757C337.825 473.386 338.37 473.2 339.062 473.2H340.62V470.381C340.62 469.441 340.868 468.736 341.362 468.266C341.857 467.772 342.549 467.524 343.44 467.524C344.355 467.524 345.047 467.772 345.517 468.266C345.987 468.736 346.222 469.441 346.222 470.381V473.2H349.746C350.439 473.2 350.971 473.386 351.342 473.757C351.712 474.103 351.898 474.622 351.898 475.315C351.898 475.958 351.712 476.465 351.342 476.836C350.971 477.207 350.439 477.392 349.746 477.392H346.222V484.144C346.222 485.183 346.457 485.962 346.927 486.481C347.421 487.001 348.201 487.261 349.264 487.261C349.635 487.261 349.981 487.223 350.303 487.149C350.624 487.075 350.921 487.026 351.193 487.001C351.539 486.976 351.824 487.087 352.046 487.335C352.269 487.557 352.38 488.064 352.38 488.856C352.38 489.449 352.281 489.969 352.083 490.414C351.886 490.859 351.539 491.181 351.045 491.378C350.723 491.502 350.278 491.601 349.709 491.675C349.165 491.774 348.695 491.824 348.299 491.824ZM368.132 491.749C367.192 491.749 366.462 491.49 365.943 490.97C365.448 490.451 365.201 489.697 365.201 488.707V468.266C365.201 467.302 365.461 466.56 365.98 466.04C366.5 465.521 367.241 465.261 368.206 465.261H380.894C381.635 465.261 382.192 465.459 382.563 465.855C382.959 466.226 383.157 466.77 383.157 467.487C383.157 468.229 382.959 468.798 382.563 469.194C382.192 469.565 381.635 469.75 380.894 469.75H370.951V476.131H380.077C380.819 476.131 381.388 476.329 381.784 476.725C382.18 477.096 382.377 477.64 382.377 478.357C382.377 479.074 382.18 479.631 381.784 480.026C381.388 480.422 380.819 480.62 380.077 480.62H370.951V488.707C370.951 490.735 370.011 491.749 368.132 491.749ZM394.016 491.824C392.062 491.824 390.355 491.44 388.896 490.674C387.462 489.907 386.349 488.806 385.557 487.372C384.766 485.937 384.37 484.243 384.37 482.289C384.37 480.83 384.593 479.519 385.038 478.357C385.483 477.195 386.126 476.205 386.967 475.389C387.833 474.548 388.859 473.918 390.046 473.497C391.233 473.052 392.556 472.829 394.016 472.829C395.969 472.829 397.663 473.213 399.098 473.979C400.557 474.746 401.682 475.834 402.474 477.244C403.29 478.654 403.698 480.336 403.698 482.289C403.698 483.773 403.463 485.097 402.993 486.259C402.548 487.421 401.905 488.423 401.064 489.264C400.223 490.105 399.197 490.748 397.985 491.193C396.798 491.613 395.475 491.824 394.016 491.824ZM394.016 487.632C394.832 487.632 395.537 487.434 396.13 487.038C396.724 486.642 397.194 486.061 397.54 485.294C397.886 484.503 398.059 483.501 398.059 482.289C398.059 480.484 397.688 479.161 396.946 478.32C396.204 477.454 395.227 477.022 394.016 477.022C393.224 477.022 392.519 477.207 391.901 477.578C391.307 477.949 390.837 478.53 390.491 479.322C390.17 480.088 390.009 481.078 390.009 482.289C390.009 484.095 390.38 485.443 391.122 486.333C391.864 487.199 392.828 487.632 394.016 487.632ZM413.821 491.824C412.288 491.824 411.014 491.539 410 490.97C408.986 490.402 408.231 489.548 407.737 488.411C407.267 487.248 407.032 485.814 407.032 484.107V475.723C407.032 474.783 407.267 474.078 407.737 473.608C408.231 473.139 408.924 472.904 409.814 472.904C410.705 472.904 411.397 473.139 411.892 473.608C412.386 474.078 412.634 474.783 412.634 475.723V484.256C412.634 485.344 412.856 486.16 413.302 486.704C413.747 487.223 414.452 487.483 415.416 487.483C416.48 487.483 417.345 487.112 418.013 486.37C418.705 485.604 419.052 484.602 419.052 483.365V475.723C419.052 474.783 419.287 474.078 419.757 473.608C420.251 473.139 420.944 472.904 421.834 472.904C422.749 472.904 423.442 473.139 423.912 473.608C424.406 474.078 424.654 474.783 424.654 475.723V488.893C424.654 490.797 423.751 491.749 421.945 491.749C421.055 491.749 420.375 491.502 419.905 491.007C419.435 490.513 419.2 489.808 419.2 488.893V486.407L419.757 487.854C419.212 489.115 418.433 490.092 417.419 490.785C416.405 491.477 415.206 491.824 413.821 491.824ZM431.808 491.749C430.893 491.749 430.188 491.502 429.693 491.007C429.223 490.513 428.988 489.808 428.988 488.893V475.723C428.988 474.808 429.223 474.115 429.693 473.646C430.188 473.151 430.868 472.904 431.733 472.904C432.624 472.904 433.304 473.151 433.774 473.646C434.244 474.115 434.479 474.808 434.479 475.723V477.838L434.071 476.613C434.639 475.402 435.48 474.474 436.593 473.831C437.731 473.163 439.017 472.829 440.451 472.829C441.911 472.829 443.11 473.114 444.05 473.683C444.99 474.227 445.695 475.068 446.165 476.205C446.634 477.318 446.869 478.74 446.869 480.472V488.893C446.869 489.808 446.622 490.513 446.127 491.007C445.658 491.502 444.965 491.749 444.05 491.749C443.16 491.749 442.467 491.502 441.973 491.007C441.503 490.513 441.268 489.808 441.268 488.893V480.731C441.268 479.47 441.033 478.567 440.563 478.023C440.118 477.454 439.425 477.17 438.485 477.17C437.298 477.17 436.346 477.541 435.629 478.283C434.936 479.025 434.59 480.014 434.59 481.251V488.893C434.59 490.797 433.663 491.749 431.808 491.749ZM458.137 491.824C456.554 491.824 455.157 491.44 453.945 490.674C452.758 489.907 451.83 488.806 451.163 487.372C450.495 485.937 450.161 484.243 450.161 482.289C450.161 480.336 450.495 478.654 451.163 477.244C451.83 475.834 452.758 474.746 453.945 473.979C455.157 473.213 456.554 472.829 458.137 472.829C459.572 472.829 460.833 473.176 461.921 473.868C463.034 474.561 463.788 475.463 464.184 476.576H463.776V467.784C463.776 466.844 464.011 466.139 464.481 465.67C464.951 465.175 465.643 464.928 466.558 464.928C467.449 464.928 468.141 465.175 468.636 465.67C469.13 466.139 469.378 466.844 469.378 467.784V488.893C469.378 489.808 469.13 490.513 468.636 491.007C468.166 491.502 467.486 491.749 466.595 491.749C465.705 491.749 465.013 491.502 464.518 491.007C464.048 490.513 463.813 489.808 463.813 488.893V486.37L464.221 487.817C463.875 489.029 463.133 490.006 461.995 490.748C460.882 491.465 459.596 491.824 458.137 491.824ZM459.806 487.632C460.623 487.632 461.328 487.434 461.921 487.038C462.515 486.642 462.985 486.061 463.331 485.294C463.677 484.503 463.85 483.501 463.85 482.289C463.85 480.484 463.479 479.161 462.737 478.32C461.995 477.454 461.018 477.022 459.806 477.022C459.015 477.022 458.31 477.207 457.692 477.578C457.098 477.949 456.628 478.53 456.282 479.322C455.961 480.088 455.8 481.078 455.8 482.289C455.8 484.095 456.171 485.443 456.913 486.333C457.655 487.199 458.619 487.632 459.806 487.632Z" fill="black"/>
<path d="M575.019 295.543V280.429" stroke="black" stroke-width="2.97169" stroke-miterlimit="10" stroke-linecap="round" stroke-linejoin="round"/>
<path d="M564.439 299.94L553.722 289.223" stroke="black" stroke-width="2.97169" stroke-miterlimit="10" stroke-linecap="round" stroke-linejoin="round"/>
<path d="M560.043 310.516H544.929" stroke="black" stroke-width="2.97169" stroke-miterlimit="10" stroke-linecap="round" stroke-linejoin="round"/>
<path d="M564.439 321.104L553.722 331.821" stroke="black" stroke-width="2.97169" stroke-miterlimit="10" stroke-linecap="round" stroke-linejoin="round"/>
<path d="M575.019 325.496V340.61" stroke="black" stroke-width="2.97169" stroke-miterlimit="10" stroke-linecap="round" stroke-linejoin="round"/>
<path d="M585.6 321.104L596.317 331.821" stroke="black" stroke-width="2.97169" stroke-miterlimit="10" stroke-linecap="round" stroke-linejoin="round"/>
<path d="M589.995 310.516H605.109" stroke="black" stroke-width="2.97169" stroke-miterlimit="10" stroke-linecap="round" stroke-linejoin="round"/>
<path d="M585.6 299.94L596.317 289.223" stroke="black" stroke-width="2.97169" stroke-miterlimit="10" stroke-linecap="round" stroke-linejoin="round"/>
<path d="M99.3395 371.117V360.125" stroke="black" stroke-width="2.97169" stroke-miterlimit="10" stroke-linecap="round" stroke-linejoin="round"/>
<path d="M91.6454 374.285L83.8136 366.453" stroke="black" stroke-width="2.97169" stroke-miterlimit="10" stroke-linecap="round" stroke-linejoin="round"/>
<path d="M88.4853 381.835H77.4933" stroke="black" stroke-width="2.97169" stroke-miterlimit="10" stroke-linecap="round" stroke-linejoin="round"/>
<path d="M91.6454 389.526L83.8136 397.358" stroke="black" stroke-width="2.97169" stroke-miterlimit="10" stroke-linecap="round" stroke-linejoin="round"/>
<path d="M99.3401 392.688V403.68" stroke="black" stroke-width="2.97169" stroke-miterlimit="10" stroke-linecap="round" stroke-linejoin="round"/>
<path d="M106.897 389.526L114.729 397.358" stroke="black" stroke-width="2.97169" stroke-miterlimit="10" stroke-linecap="round" stroke-linejoin="round"/>
<path d="M110.057 381.835H121.049" stroke="black" stroke-width="2.97169" stroke-miterlimit="10" stroke-linecap="round" stroke-linejoin="round"/>
<path d="M106.897 374.285L114.729 366.453" stroke="black" stroke-width="2.97169" stroke-miterlimit="10" stroke-linecap="round" stroke-linejoin="round"/>
<path d="M395.987 144.681V133.689" stroke="black" stroke-width="2.97169" stroke-miterlimit="10" stroke-linecap="round" stroke-linejoin="round"/>
<path d="M388.293 147.849L380.598 140.017" stroke="black" stroke-width="2.97169" stroke-miterlimit="10" stroke-linecap="round" stroke-linejoin="round"/>
<path d="M385.132 155.399H374.14" stroke="black" stroke-width="2.97169" stroke-miterlimit="10" stroke-linecap="round" stroke-linejoin="round"/>
<path d="M388.293 163.09L380.598 170.785" stroke="black" stroke-width="2.97169" stroke-miterlimit="10" stroke-linecap="round" stroke-linejoin="round"/>
<path d="M395.987 166.252V177.244" stroke="black" stroke-width="2.97169" stroke-miterlimit="10" stroke-linecap="round" stroke-linejoin="round"/>
<path d="M403.681 163.09L411.375 170.785" stroke="black" stroke-width="2.97169" stroke-miterlimit="10" stroke-linecap="round" stroke-linejoin="round"/>
<path d="M406.841 155.399H417.696" stroke="black" stroke-width="2.97169" stroke-miterlimit="10" stroke-linecap="round" stroke-linejoin="round"/>
<path d="M403.681 147.849L411.375 140.017" stroke="black" stroke-width="2.97169" stroke-miterlimit="10" stroke-linecap="round" stroke-linejoin="round"/>
<path d="M529.952 449.161H153.75V508.38H529.952V449.161Z" stroke="black" stroke-width="3.32329" stroke-miterlimit="10" stroke-linecap="round" stroke-linejoin="round"/>
<path d="M215.871 540.527H217.452V529.752H221.151V528.423H212.19V529.752H215.871V540.527ZM222.323 540.527H223.903V535.283C223.903 534.996 223.921 534.763 224.011 534.529C224.316 533.685 225.106 532.967 226.13 532.967C227.62 532.967 228.141 534.134 228.141 535.535V540.527H229.721V535.355C229.721 532.374 227.854 531.656 226.686 531.656C226.094 531.656 225.537 531.817 225.07 532.087C224.585 532.356 224.19 532.769 223.939 533.218H223.903V527.777H222.323V540.527ZM239.27 536.469C239.305 536.289 239.323 536.056 239.323 535.732C239.323 534.134 238.587 531.656 235.732 531.656C233.2 531.656 231.655 533.703 231.655 536.325C231.655 538.947 233.254 540.725 235.929 540.725C237.312 540.725 238.282 540.419 238.839 540.168L238.551 539.037C237.977 539.288 237.276 539.486 236.145 539.486C234.547 539.486 233.2 538.606 233.164 536.469H239.27ZM233.182 535.337C233.307 534.242 233.99 532.787 235.606 532.787C237.384 532.787 237.815 534.349 237.797 535.337H233.182ZM245.086 540.527H246.666V535.894C246.666 535.642 246.684 535.373 246.72 535.158C246.936 533.972 247.726 533.146 248.839 533.146C249.055 533.146 249.216 533.146 249.378 533.182V531.692C249.234 531.674 249.109 531.656 248.947 531.656C247.888 531.656 246.918 532.392 246.523 533.559H246.469L246.397 531.835H245.014C245.068 532.643 245.086 533.523 245.086 534.547V540.527ZM257.771 536.469C257.807 536.289 257.825 536.056 257.825 535.732C257.825 534.134 257.089 531.656 254.234 531.656C251.702 531.656 250.157 533.703 250.157 536.325C250.157 538.947 251.755 540.725 254.431 540.725C255.814 540.725 256.784 540.419 257.34 540.168L257.053 539.037C256.478 539.288 255.778 539.486 254.647 539.486C253.048 539.486 251.702 538.606 251.666 536.469H257.771ZM251.684 535.337C251.809 534.242 252.492 532.787 254.108 532.787C255.886 532.787 256.317 534.349 256.299 535.337H251.684ZM265.708 544.083H267.271V534.224C267.271 533.326 267.307 532.554 267.343 531.835H265.852L265.798 533.146H265.762C265.331 532.32 264.433 531.656 263.087 531.656C261.255 531.656 259.154 533.074 259.154 536.343C259.154 538.983 260.806 540.725 262.835 540.725C264.236 540.725 265.188 540.042 265.673 539.198H265.708V544.083ZM265.708 536.989C265.708 537.223 265.655 537.528 265.583 537.762C265.224 538.839 264.344 539.468 263.32 539.468C261.578 539.468 260.752 537.977 260.752 536.235C260.752 534.296 261.74 532.913 263.374 532.913C264.559 532.913 265.385 533.739 265.637 534.709C265.691 534.906 265.708 535.14 265.708 535.355V536.989ZM277.174 531.835H275.594V537.151C275.594 537.456 275.54 537.744 275.45 537.959C275.163 538.677 274.427 539.414 273.367 539.414C271.949 539.414 271.428 538.282 271.428 536.63V531.835H269.847V536.918C269.847 539.952 271.482 540.725 272.846 540.725C274.391 540.725 275.325 539.809 275.72 539.108H275.756L275.845 540.527H277.246C277.192 539.845 277.174 539.055 277.174 538.139V531.835ZM286.778 536.469C286.814 536.289 286.832 536.056 286.832 535.732C286.832 534.134 286.096 531.656 283.24 531.656C280.708 531.656 279.164 533.703 279.164 536.325C279.164 538.947 280.762 540.725 283.438 540.725C284.821 540.725 285.79 540.419 286.347 540.168L286.06 539.037C285.485 539.288 284.785 539.486 283.653 539.486C282.055 539.486 280.708 538.606 280.672 536.469H286.778ZM280.69 535.337C280.816 534.242 281.498 532.787 283.115 532.787C284.892 532.787 285.323 534.349 285.306 535.337H280.69ZM288.196 540.114C288.807 540.473 289.687 540.725 290.639 540.725C292.668 540.725 293.871 539.647 293.871 538.103C293.871 536.81 293.081 536.056 291.59 535.499C290.459 535.05 289.956 534.727 289.956 534.008C289.956 533.362 290.459 532.823 291.393 532.823C292.201 532.823 292.83 533.128 293.171 533.344L293.548 532.195C293.081 531.889 292.309 531.656 291.429 531.656C289.579 531.656 288.43 532.805 288.43 534.206C288.43 535.247 289.166 536.091 290.746 536.666C291.896 537.097 292.345 537.492 292.345 538.246C292.345 538.983 291.806 539.539 290.675 539.539C289.884 539.539 289.058 539.216 288.573 538.929L288.196 540.114ZM296.268 530.219V531.835H294.921V533.039H296.268V537.779C296.268 538.803 296.448 539.575 296.879 540.06C297.256 540.473 297.849 540.725 298.585 540.725C299.195 540.725 299.68 540.617 299.986 540.509L299.914 539.306C299.68 539.378 299.429 539.414 298.998 539.414C298.118 539.414 297.813 538.803 297.813 537.726V533.039H300.075V531.835H297.813V529.752L296.268 530.219ZM308.735 536.469C308.771 536.289 308.789 536.056 308.789 535.732C308.789 534.134 308.052 531.656 305.197 531.656C302.665 531.656 301.12 533.703 301.12 536.325C301.12 538.947 302.719 540.725 305.395 540.725C306.777 540.725 307.747 540.419 308.304 540.168L308.016 539.037C307.442 539.288 306.741 539.486 305.61 539.486C304.012 539.486 302.665 538.606 302.629 536.469H308.735ZM302.647 535.337C302.773 534.242 303.455 532.787 305.071 532.787C306.849 532.787 307.28 534.349 307.262 535.337H302.647ZM316.672 527.777V532.967H316.636C316.241 532.284 315.361 531.656 314.014 531.656C311.913 531.656 310.099 533.416 310.117 536.307C310.117 538.947 311.751 540.725 313.852 540.725C315.271 540.725 316.313 539.988 316.78 539.019H316.833L316.905 540.527H318.306C318.27 539.934 318.234 539.055 318.234 538.282V527.777H316.672ZM316.672 536.882C316.672 537.133 316.654 537.349 316.6 537.564C316.313 538.731 315.343 539.45 314.283 539.45C312.595 539.45 311.715 537.995 311.715 536.235C311.715 534.332 312.685 532.895 314.319 532.895C315.505 532.895 316.367 533.721 316.6 534.709C316.654 534.906 316.672 535.176 316.672 535.373V536.882ZM324.688 544.083H326.25V539.36H326.286C326.807 540.222 327.813 540.725 328.962 540.725C331.009 540.725 332.931 539.18 332.931 536.056C332.931 533.434 331.35 531.656 329.231 531.656C327.813 531.656 326.771 532.266 326.142 533.326H326.106L326.017 531.835H324.616C324.652 532.661 324.688 533.559 324.688 534.673V544.083ZM326.25 535.481C326.25 535.283 326.304 535.05 326.358 534.852C326.645 533.667 327.669 532.913 328.746 532.913C330.416 532.913 331.332 534.403 331.332 536.127C331.332 538.121 330.363 539.486 328.692 539.486C327.561 539.486 326.609 538.731 326.322 537.636C326.268 537.438 326.25 537.223 326.25 536.989V535.481ZM341.018 535.194C341.018 533.47 340.371 531.656 337.713 531.656C336.618 531.656 335.559 531.961 334.84 532.41L335.199 533.47C335.81 533.056 336.654 532.823 337.48 532.823C339.258 532.805 339.455 534.116 339.455 534.816V534.996C336.097 534.978 334.23 536.127 334.23 538.228C334.23 539.486 335.128 540.725 336.887 540.725C338.127 540.725 339.06 540.114 339.545 539.432H339.599L339.725 540.527H341.144C341.054 539.934 341.018 539.198 341.018 538.444V535.194ZM339.491 537.6C339.491 537.744 339.473 537.923 339.42 538.103C339.168 538.839 338.432 539.557 337.283 539.557C336.492 539.557 335.81 539.09 335.81 538.049C335.81 536.361 337.767 536.056 339.491 536.091V537.6ZM351.01 534.206C351.01 533.164 351.028 532.446 351.082 531.835H349.681L349.627 533.146H349.591C349.196 532.428 348.388 531.656 346.88 531.656C344.868 531.656 342.947 533.308 342.947 536.253C342.947 538.659 344.491 540.491 346.646 540.491C347.993 540.491 348.945 539.845 349.412 539.037H349.448V539.988C349.448 542.197 348.263 543.041 346.646 543.041C345.569 543.041 344.671 542.718 344.096 542.341L343.701 543.562C344.402 544.029 345.551 544.28 346.592 544.28C347.688 544.28 348.909 544.011 349.771 543.239C350.597 542.467 351.01 541.263 351.01 539.252V534.206ZM349.43 536.828C349.43 537.097 349.394 537.402 349.304 537.672C348.981 538.677 348.101 539.288 347.113 539.288C345.425 539.288 344.545 537.869 344.545 536.163C344.545 534.152 345.623 532.877 347.131 532.877C348.298 532.877 349.053 533.631 349.34 534.565C349.412 534.763 349.43 534.996 349.43 535.265V536.828ZM360.593 536.469C360.628 536.289 360.646 536.056 360.646 535.732C360.646 534.134 359.91 531.656 357.055 531.656C354.523 531.656 352.978 533.703 352.978 536.325C352.978 538.947 354.577 540.725 357.252 540.725C358.635 540.725 359.605 540.419 360.162 540.168L359.874 539.037C359.3 539.288 358.599 539.486 357.468 539.486C355.87 539.486 354.523 538.606 354.487 536.469H360.593ZM354.505 535.337C354.63 534.242 355.313 532.787 356.929 532.787C358.707 532.787 359.138 534.349 359.12 535.337H354.505ZM372.335 527.777V532.967H372.299C371.904 532.284 371.024 531.656 369.677 531.656C367.576 531.656 365.762 533.416 365.78 536.307C365.78 538.947 367.415 540.725 369.516 540.725C370.934 540.725 371.976 539.988 372.443 539.019H372.497L372.569 540.527H373.969C373.933 539.934 373.898 539.055 373.898 538.282V527.777H372.335ZM372.335 536.882C372.335 537.133 372.317 537.349 372.263 537.564C371.976 538.731 371.006 539.45 369.947 539.45C368.259 539.45 367.379 537.995 367.379 536.235C367.379 534.332 368.348 532.895 369.983 532.895C371.168 532.895 372.03 533.721 372.263 534.709C372.317 534.906 372.335 535.176 372.335 535.373V536.882ZM380.227 531.656C377.839 531.656 375.917 533.362 375.917 536.253C375.917 539.001 377.749 540.725 380.083 540.725C382.166 540.725 384.411 539.324 384.411 536.109C384.411 533.47 382.723 531.656 380.227 531.656ZM380.191 532.841C382.059 532.841 382.795 534.691 382.795 536.163C382.795 538.121 381.664 539.539 380.155 539.539C378.611 539.539 377.533 538.103 377.533 536.199C377.533 534.565 378.341 532.841 380.191 532.841ZM393.387 536.469C393.423 536.289 393.441 536.056 393.441 535.732C393.441 534.134 392.705 531.656 389.849 531.656C387.317 531.656 385.773 533.703 385.773 536.325C385.773 538.947 387.371 540.725 390.047 540.725C391.43 540.725 392.4 540.419 392.956 540.168L392.669 539.037C392.094 539.288 391.394 539.486 390.263 539.486C388.664 539.486 387.317 538.606 387.281 536.469H393.387ZM387.299 535.337C387.425 534.242 388.108 532.787 389.724 532.787C391.502 532.787 391.933 534.349 391.915 535.337H387.299ZM394.806 540.114C395.416 540.473 396.296 540.725 397.248 540.725C399.277 540.725 400.48 539.647 400.48 538.103C400.48 536.81 399.69 536.056 398.2 535.499C397.068 535.05 396.565 534.727 396.565 534.008C396.565 533.362 397.068 532.823 398.002 532.823C398.81 532.823 399.439 533.128 399.78 533.344L400.157 532.195C399.69 531.889 398.918 531.656 398.038 531.656C396.188 531.656 395.039 532.805 395.039 534.206C395.039 535.247 395.775 536.091 397.356 536.666C398.505 537.097 398.954 537.492 398.954 538.246C398.954 538.983 398.415 539.539 397.284 539.539C396.494 539.539 395.667 539.216 395.183 538.929L394.806 540.114ZM406.324 540.527H407.904V535.301C407.904 535.032 407.94 534.763 408.012 534.565C408.299 533.685 409.107 532.949 410.131 532.949C411.622 532.949 412.142 534.116 412.142 535.517V540.527H413.723V535.355C413.723 532.374 411.855 531.656 410.652 531.656C409.215 531.656 408.209 532.464 407.778 533.272H407.743L407.653 531.835H406.252C406.306 532.554 406.324 533.272 406.324 534.188V540.527ZM419.966 531.656C417.578 531.656 415.656 533.362 415.656 536.253C415.656 539.001 417.488 540.725 419.823 540.725C421.906 540.725 424.151 539.324 424.151 536.109C424.151 533.47 422.463 531.656 419.966 531.656ZM419.931 532.841C421.798 532.841 422.534 534.691 422.534 536.163C422.534 538.121 421.403 539.539 419.895 539.539C418.35 539.539 417.273 538.103 417.273 536.199C417.273 534.565 418.081 532.841 419.931 532.841ZM426.5 530.219V531.835H425.153V533.039H426.5V537.779C426.5 538.803 426.68 539.575 427.111 540.06C427.488 540.473 428.08 540.725 428.817 540.725C429.427 540.725 429.912 540.617 430.217 540.509L430.146 539.306C429.912 539.378 429.661 539.414 429.23 539.414C428.35 539.414 428.045 538.803 428.045 537.726V533.039H430.307V531.835H428.045V529.752L426.5 530.219ZM442.877 536.469C442.913 536.289 442.931 536.056 442.931 535.732C442.931 534.134 442.195 531.656 439.34 531.656C436.808 531.656 435.263 533.703 435.263 536.325C435.263 538.947 436.861 540.725 439.537 540.725C440.92 540.725 441.89 540.419 442.446 540.168L442.159 539.037C441.584 539.288 440.884 539.486 439.753 539.486C438.154 539.486 436.808 538.606 436.772 536.469H442.877ZM436.79 535.337C436.915 534.242 437.598 532.787 439.214 532.787C440.992 532.787 441.423 534.349 441.405 535.337H436.79ZM443.812 531.835L446.757 536.091L443.668 540.527H445.41L446.667 538.57C447.009 538.049 447.296 537.582 447.583 537.061H447.619C447.925 537.582 448.212 538.067 448.553 538.57L449.846 540.527H451.624L448.589 536.038L451.552 531.835H449.828L448.625 533.685C448.32 534.152 448.032 534.601 447.745 535.104H447.709C447.422 534.619 447.152 534.188 446.811 533.703L445.572 531.835H443.812ZM454.729 540.527V531.835H453.148V540.527H454.729ZM453.939 528.405C453.346 528.405 452.951 528.854 452.951 529.393C452.951 529.932 453.328 530.363 453.903 530.363C454.531 530.363 454.908 529.932 454.908 529.393C454.908 528.836 454.513 528.405 453.939 528.405ZM456.765 540.114C457.375 540.473 458.255 540.725 459.207 540.725C461.236 540.725 462.44 539.647 462.44 538.103C462.44 536.81 461.649 536.056 460.159 535.499C459.027 535.05 458.525 534.727 458.525 534.008C458.525 533.362 459.027 532.823 459.961 532.823C460.769 532.823 461.398 533.128 461.739 533.344L462.116 532.195C461.649 531.889 460.877 531.656 459.997 531.656C458.148 531.656 456.998 532.805 456.998 534.206C456.998 535.247 457.734 536.091 459.315 536.666C460.464 537.097 460.913 537.492 460.913 538.246C460.913 538.983 460.374 539.539 459.243 539.539C458.453 539.539 457.627 539.216 457.142 538.929L456.765 540.114ZM464.837 530.219V531.835H463.49V533.039H464.837V537.779C464.837 538.803 465.016 539.575 465.447 540.06C465.824 540.473 466.417 540.725 467.153 540.725C467.764 540.725 468.249 540.617 468.554 540.509L468.482 539.306C468.249 539.378 467.997 539.414 467.566 539.414C466.686 539.414 466.381 538.803 466.381 537.726V533.039H468.644V531.835H466.381V529.752L464.837 530.219ZM471.034 540.725C471.699 540.725 472.13 540.24 472.13 539.593C472.13 538.929 471.699 538.462 471.07 538.462C470.442 538.462 469.993 538.947 469.993 539.593C469.993 540.24 470.424 540.725 471.034 540.725Z" fill="black"/>
<path d="M183.017 236.605V189.202H429.65V294.588" stroke="black" stroke-width="2.97169" stroke-miterlimit="10" stroke-linecap="round" stroke-linejoin="round"/>
<path d="M342.675 155.399V214.894H506.319V241.824" stroke="black" stroke-width="2.97169" stroke-miterlimit="10" stroke-linecap="round" stroke-linejoin="round"/>
<path d="M188.925 242.511C188.925 245.809 186.315 248.419 183.017 248.419C179.719 248.419 177.109 245.809 177.109 242.511C177.109 239.214 179.719 236.603 183.017 236.603C186.315 236.603 188.925 239.214 188.925 242.511Z" stroke="black" stroke-width="2.97169" stroke-miterlimit="10" stroke-linecap="round" stroke-linejoin="round"/>
<path d="M342.676 155.397C345.939 155.397 348.584 152.752 348.584 149.489C348.584 146.226 345.939 143.581 342.676 143.581C339.413 143.581 336.767 146.226 336.767 149.489C336.767 152.752 339.413 155.397 342.676 155.397Z" stroke="black" stroke-width="2.97169" stroke-miterlimit="10" stroke-linecap="round" stroke-linejoin="round"/>
<path d="M512.09 248.413C512.09 251.711 509.479 254.321 506.182 254.321C502.884 254.321 500.274 251.711 500.274 248.413C500.274 245.115 502.884 242.505 506.182 242.505C509.479 242.505 512.09 245.115 512.09 248.413Z" stroke="black" stroke-width="2.97169" stroke-miterlimit="10" stroke-linecap="round" stroke-linejoin="round"/>
<path d="M435.558 301.456C435.558 304.753 432.947 307.364 429.65 307.364C426.352 307.364 423.742 304.753 423.742 301.456C423.742 298.158 426.352 295.547 429.65 295.547C432.947 295.547 435.558 298.158 435.558 301.456Z" stroke="black" stroke-width="2.97169" stroke-miterlimit="10" stroke-linecap="round" stroke-linejoin="round"/>
<path d="M144.681 419.339L130.804 433.216" stroke="black" stroke-width="2.97169" stroke-miterlimit="10" stroke-linecap="round" stroke-linejoin="round"/>
<path d="M130.804 419.339L144.681 433.216" stroke="black" stroke-width="2.97169" stroke-miterlimit="10" stroke-linecap="round" stroke-linejoin="round"/>
<path d="M151.689 217.09L137.674 230.967" stroke="black" stroke-width="2.97169" stroke-miterlimit="10" stroke-linecap="round" stroke-linejoin="round"/>
<path d="M137.674 217.09L151.689 230.967" stroke="black" stroke-width="2.97169" stroke-miterlimit="10" stroke-linecap="round" stroke-linejoin="round"/>
<path d="M603.323 374.961L589.308 388.838" stroke="black" stroke-width="2.97169" stroke-miterlimit="10" stroke-linecap="round" stroke-linejoin="round"/>
<path d="M589.308 374.961L603.323 388.838" stroke="black" stroke-width="2.97169" stroke-miterlimit="10" stroke-linecap="round" stroke-linejoin="round"/>
<path d="M208.161 137.673C203.764 137.673 199.642 139.322 196.482 141.933C193.322 132.177 184.116 125.17 173.399 125.17C161.308 125.17 151.278 133.964 149.354 145.505C148.117 145.093 146.743 144.956 145.369 144.956C137.4 144.956 130.805 151.413 130.805 159.52C130.805 166.94 136.301 172.985 143.446 173.947V174.084H208.161C218.191 174.084 226.298 165.978 226.298 155.948C226.298 145.78 218.191 137.673 208.161 137.673Z" stroke="black" stroke-width="3.10716" stroke-miterlimit="10" stroke-linecap="round" stroke-linejoin="round"/>
<path d="M544.928 230.005C548.088 230.005 551.111 231.104 553.447 233.028C555.783 226.021 562.378 220.937 570.21 220.937C579.003 220.937 586.286 227.257 587.66 235.639C588.621 235.364 589.583 235.226 590.545 235.226C596.316 235.226 601.125 239.898 601.125 245.806C601.125 251.165 597.14 255.562 591.919 256.249V256.386H544.928C537.646 256.386 531.738 250.478 531.738 243.196C531.738 235.913 537.646 230.005 544.928 230.005Z" stroke="black" stroke-width="2.97169" stroke-miterlimit="10" stroke-linecap="round" stroke-linejoin="round"/>
<path d="M609.781 479.663C607.033 479.663 604.56 480.625 602.637 482.274C600.713 476.365 595.08 472.106 588.484 472.106C581.065 472.106 575.019 477.465 573.783 484.472C572.958 484.197 572.134 484.06 571.309 484.06C566.363 484.06 562.516 488.044 562.516 492.853C562.516 497.388 565.813 501.097 570.21 501.647V501.784H609.644C615.69 501.784 620.773 496.838 620.773 490.655C620.773 484.609 615.827 479.663 609.781 479.663Z" stroke="black" stroke-width="2.97169" stroke-miterlimit="10" stroke-linecap="round" stroke-linejoin="round"/>
<path d="M74.6077 456.303C77.7679 456.303 80.7907 457.402 83.1265 459.326C85.4623 452.318 92.0575 447.234 99.8893 447.234C108.683 447.234 115.965 453.555 117.339 461.936C118.301 461.661 119.263 461.524 120.225 461.524C125.995 461.524 130.804 466.196 130.804 472.104C130.804 477.462 126.82 481.859 121.599 482.546V482.684H74.6077C67.3255 482.684 61.4173 476.775 61.4173 469.493C61.2799 462.211 67.1881 456.303 74.6077 456.303Z" stroke="black" stroke-width="2.97169" stroke-miterlimit="10" stroke-linecap="round" stroke-linejoin="round"/>
<path d="M226.298 128.878C226.298 128.878 309.288 61.1402 422.23 92.33C540.807 125.031 564.439 209.67 564.439 209.67" stroke="black" stroke-width="2.97169" stroke-miterlimit="10" stroke-linecap="round" stroke-linejoin="round" stroke-dasharray="4.49 4.49"/>
<path d="M100.851 325.63C68.6997 330.577 52.4865 399.002 88.6227 426.07" stroke="black" stroke-width="2.77081" stroke-miterlimit="10" stroke-linecap="round" stroke-linejoin="round" stroke-dasharray="4.19 4.19"/>
<path d="M506.319 522.806C506.319 522.806 561.416 546.851 585.599 513.325" stroke="black" stroke-width="2.97169" stroke-miterlimit="10" stroke-linecap="round" stroke-linejoin="round" stroke-dasharray="4.49 4.49"/>
<path d="M243.885 248.415V213.516" stroke="black" stroke-width="2.97169" stroke-miterlimit="10" stroke-linecap="round" stroke-linejoin="round"/>
<path d="M235.504 248.42V230.971" stroke="black" stroke-width="2.97169" stroke-miterlimit="10" stroke-linecap="round" stroke-linejoin="round"/>
<path d="M371.942 256.39V230.971" stroke="black" stroke-width="2.97169" stroke-miterlimit="10" stroke-linecap="round" stroke-linejoin="round"/>
<path d="M362.324 254.192V243.75" stroke="black" stroke-width="2.97169" stroke-miterlimit="10" stroke-linecap="round" stroke-linejoin="round"/>
<path d="M353.942 254.19V236.603" stroke="black" stroke-width="2.97169" stroke-miterlimit="10" stroke-linecap="round" stroke-linejoin="round"/>
<path d="M251.992 248.42V230.971" stroke="black" stroke-width="2.97169" stroke-miterlimit="10" stroke-linecap="round" stroke-linejoin="round"/>
<path d="M482.823 253.224V245.392" stroke="black" stroke-width="2.97169" stroke-miterlimit="10" stroke-linecap="round" stroke-linejoin="round"/>
<path d="M474.442 253.221V234.26" stroke="black" stroke-width="2.97169" stroke-miterlimit="10" stroke-linecap="round" stroke-linejoin="round"/>
<path d="M490.93 253.225V239.623" stroke="black" stroke-width="2.97169" stroke-miterlimit="10" stroke-linecap="round" stroke-linejoin="round"/>
</g>
<defs>
<clipPath id="clip0_2938_8005">
<rect width="687" height="687" fill="white"/>
</clipPath>
</defs>
</svg>
