<svg width="76" height="79" viewBox="0 0 76 79" fill="none" xmlns="http://www.w3.org/2000/svg">
<path fill-rule="evenodd" clip-rule="evenodd" d="M61.0887 10.3054C42.9592 -7.60297 27.5167 0.541548 24.8296 14.1852C22.1425 27.8288 -2.81891 30.553 0.263067 46.6682C3.34504 62.7833 36.916 53.215 36.916 67.8193C36.916 82.4237 75.7308 81.9201 75.7308 62.7833C75.7308 43.6466 79.2183 28.2138 61.0887 10.3054Z" fill="white" fill-opacity="0.2"/>
<mask id="mask0_2938_8118" style="mask-type:alpha" maskUnits="userSpaceOnUse" x="0" y="0" width="76" height="79">
<path fill-rule="evenodd" clip-rule="evenodd" d="M61.0887 10.3054C42.9592 -7.60297 27.5167 0.541548 24.8296 14.1852C22.1425 27.8288 -2.81891 30.553 0.263067 46.6682C3.34504 62.7833 36.916 53.215 36.916 67.8193C36.916 82.4237 75.7308 81.9201 75.7308 62.7833C75.7308 43.6466 79.2183 28.2138 61.0887 10.3054Z" fill="white"/>
</mask>
<g mask="url(#mask0_2938_8118)">
<g opacity="0.2">
<rect width="76.547" height="78.5614" fill="#F9A33E"/>
</g>
</g>
<path fill-rule="evenodd" clip-rule="evenodd" d="M60.9553 38.7621C60.3799 38.8586 59.6756 39.1591 59.2573 39.4865C59.1027 39.6075 57.9971 40.6674 54.5053 44.0423C54.1745 44.362 53.6799 44.8412 53.4062 45.1072L52.9086 45.5907L52.5511 45.3402C52.1497 45.0589 51.769 44.8741 51.2865 44.7265L50.9599 44.6266L45.9211 44.6016C40.0992 44.5729 40.7018 44.623 39.5276 44.0701C37.9404 43.3229 36.6221 43.0239 34.9073 43.0223C33.5736 43.0211 32.6342 43.1689 31.4069 43.5732C28.9109 44.3955 26.7719 46.0375 25.3912 48.191C25.234 48.4362 25.0992 48.6445 25.0916 48.654C25.084 48.6634 24.9116 48.6166 24.7085 48.5498C24.0261 48.3253 23.1489 48.343 22.4254 48.5958C21.7224 48.8414 21.6829 48.8757 18.8456 51.7051C15.8698 54.6727 16.0009 54.5131 16.0009 55.1693C16.0009 55.5014 16.0164 55.5763 16.1262 55.7743C16.2173 55.9386 17.8753 57.6226 22.1905 61.9337C28.8099 68.5468 28.2448 68.0337 28.9098 68.0337C29.5094 68.0337 29.4181 68.1096 32.3027 65.215C33.973 63.5389 34.9336 62.5419 35.0508 62.3626C35.5589 61.5849 35.7488 60.6349 35.5763 59.7338L35.5097 59.3854L35.7436 59.1466C36.3375 58.5402 37.1911 58.0424 38.0359 57.8101L38.4745 57.6894L45.8097 57.6652C53.7721 57.6389 53.1949 57.6577 53.8262 57.4043C54.1077 57.2914 54.2093 57.2304 54.6095 56.9339C54.8555 56.7516 55.1501 56.4173 56.1254 55.2139C56.7912 54.3923 58.0446 52.8472 58.9108 51.7804C59.777 50.7136 60.6239 49.6702 60.7928 49.4617C60.9617 49.2532 61.3467 48.7788 61.6483 48.4075C61.9499 48.0361 62.608 47.2258 63.1108 46.6067C63.6135 45.9876 64.1794 45.2931 64.3683 45.0635C65.1072 44.1649 65.3843 43.3645 65.3275 42.2928C65.2333 40.5191 63.9663 39.0972 62.1967 38.7795C61.8136 38.7108 61.3037 38.7036 60.9553 38.7621ZM62.2787 41.0272C62.8334 41.3003 63.1555 41.7848 63.1901 42.3982C63.2155 42.8491 63.1315 43.1611 62.9002 43.4751C62.7604 43.6649 61.3803 45.3693 59.0635 48.2132C58.3415 49.0994 58.3829 49.0485 56.3104 51.602C55.982 52.0067 55.2584 52.8996 54.7024 53.5863C53.3336 55.2768 53.3301 55.2807 53.089 55.3995L52.8773 55.5037L45.4975 55.5279C38.1188 55.5521 38.1177 55.5522 37.6942 55.6493C36.508 55.9212 35.6205 56.3756 34.7179 57.1731C34.4941 57.3708 34.2965 57.5326 34.2788 57.5326C34.2148 57.5326 26.8141 50.096 26.8141 50.0317C26.8141 49.9368 27.2721 49.189 27.5866 48.7705C27.9748 48.254 28.8565 47.3893 29.4185 46.9741C31.1343 45.7065 33.1777 45.0664 35.2417 45.1501C36.5169 45.2017 37.4898 45.4563 38.8089 46.0835C39.3937 46.3616 39.7456 46.4851 40.335 46.6195C40.7389 46.7115 40.8659 46.7143 45.7428 46.7389L50.7369 46.764L51.0357 46.9055C51.4024 47.0792 51.7085 47.3771 51.8664 47.7139C51.9706 47.9361 51.9854 48.0237 51.9854 48.4138C51.9854 48.8115 51.972 48.8871 51.8611 49.1129C51.6989 49.4432 51.2916 49.8218 50.9503 49.9596L50.6923 50.0637L46.0995 50.086C41.9423 50.1062 41.494 50.1152 41.3729 50.1818C40.5868 50.614 40.6128 51.7288 41.4175 52.0979C41.5868 52.1756 41.829 52.1798 46.211 52.18C49.9708 52.1801 50.88 52.1688 51.117 52.1185C52.4134 51.8436 53.5007 50.8984 53.9241 49.6783C54.1425 49.0487 54.2061 48.2984 54.0886 47.7378L54.0311 47.4631L54.9702 46.5582C56.4313 45.1505 58.3457 43.3022 59.0085 42.6594C60.2438 41.4612 60.5355 41.1879 60.6705 41.1024C61.1336 40.8088 61.7742 40.7789 62.2787 41.0272ZM24.2981 50.6818C24.4643 50.7724 25.6911 51.9734 28.9193 55.2056C33.166 59.4577 33.3175 59.6151 33.4128 59.8736C33.55 60.2458 33.5253 60.719 33.3521 61.0373C33.2662 61.195 32.5877 61.9036 31.0567 63.4343L28.8833 65.6075L23.6571 60.3864C20.7828 57.5149 18.4314 55.1513 18.4319 55.1339C18.4331 55.0862 22.6211 50.921 22.805 50.7847C23.0726 50.5862 23.2751 50.5317 23.6927 50.5457C24.0076 50.5563 24.1101 50.5794 24.2981 50.6818ZM23.3137 53.2014C23.0618 53.3162 22.8633 53.4955 22.722 53.7359C22.615 53.918 22.6003 53.9893 22.6003 54.3256C22.6003 54.6734 22.6125 54.7278 22.735 54.926C23.0006 55.3555 23.3953 55.5543 23.9028 55.514C24.5314 55.464 24.9832 54.9662 24.9844 54.3221C24.9854 53.8238 24.7172 53.4133 24.253 53.2024C24.0116 53.0928 23.5531 53.0923 23.3137 53.2014Z" fill="black"/>
<path d="M37 35.8965C37 31.6287 40.4597 28.1689 44.7275 28.1689H47.2725C51.5403 28.1689 55 31.6287 55 35.8965C55 37.3646 53.8099 38.5547 52.3418 38.5547H39.6582C38.1901 38.5547 37 37.3646 37 35.8965Z" stroke="#F69727" stroke-width="2"/>
<circle cx="45.9745" cy="21.0522" r="4.05076" stroke="#F69727" stroke-width="2"/>
</svg>
