<svg width="76" height="79" viewBox="0 0 76 79" fill="none" xmlns="http://www.w3.org/2000/svg">
<path fill-rule="evenodd" clip-rule="evenodd" d="M61.0887 10.3054C42.9592 -7.60297 27.5167 0.541548 24.8296 14.1852C22.1425 27.8288 -2.81891 30.553 0.263067 46.6682C3.34504 62.7833 36.916 53.215 36.916 67.8193C36.916 82.4237 75.7308 81.9201 75.7308 62.7833C75.7308 43.6466 79.2183 28.2138 61.0887 10.3054Z" fill="white" fill-opacity="0.2"/>
<mask id="mask0_2938_8099" style="mask-type:alpha" maskUnits="userSpaceOnUse" x="0" y="0" width="76" height="79">
<path fill-rule="evenodd" clip-rule="evenodd" d="M61.0887 10.3054C42.9592 -7.60297 27.5167 0.541548 24.8296 14.1852C22.1425 27.8288 -2.81891 30.553 0.263067 46.6682C3.34504 62.7833 36.916 53.215 36.916 67.8193C36.916 82.4237 75.7308 81.9201 75.7308 62.7833C75.7308 43.6466 79.2183 28.2138 61.0887 10.3054Z" fill="white"/>
</mask>
<g mask="url(#mask0_2938_8099)">
<g opacity="0.2">
<rect width="76.547" height="78.5614" fill="#F9A33E"/>
</g>
</g>
<path fill-rule="evenodd" clip-rule="evenodd" d="M43.1689 17.0963C42.8584 17.1664 42.3114 17.3678 41.9532 17.5438C41.3292 17.8504 40.9639 18.1991 33.2263 25.8731C22.1425 36.8658 22.1959 36.8111 22.068 37.2861C21.7828 38.3454 22.4226 39.3658 23.4613 39.5081C24.035 39.5868 24.5086 39.4228 25.01 38.9721L25.4497 38.5766L25.4753 47.114C25.5031 56.3778 25.4724 55.7625 25.9741 57.1034C26.5498 58.6421 28.2379 60.3299 29.7784 60.907C31.0641 61.3887 30.9851 61.3824 35.7011 61.3824H39.5152C39.8884 61.3824 40.2646 61.29 40.5467 61.0457C40.6568 60.9503 40.7588 60.8491 40.8558 60.7397C41.1131 60.4492 41.2165 60.0598 41.2191 59.6717L41.2585 53.7908L41.3019 47.3152C42.5665 44.6182 45.9288 44.4046 47.2935 47.3152L47.3369 53.7844L47.3751 59.4792C47.3785 59.9855 47.5024 60.5052 47.8578 60.866C48.2361 61.2502 48.7841 61.3824 49.3233 61.3824H52.8011C56.5538 61.3824 57.1725 61.3638 57.6268 61.2375C58.5462 60.982 59.1239 60.7313 59.7722 60.3065C61.7193 59.0307 62.907 56.9297 62.9191 54.7395C62.9266 53.3782 61.5742 52.1763 60.3013 53.0188C59.7732 53.3682 59.5877 53.7352 59.4898 54.6247C59.3394 55.9892 58.6414 56.8502 57.6196 57.4897C57.1276 57.7976 56.5447 57.9117 55.9643 57.9168L53.8319 57.9358L50.8186 57.9627L50.7877 52.4219C50.7542 46.4076 50.7674 46.5802 50.2531 45.438C49.5715 43.9243 48.1689 42.5712 46.6759 41.987C42.9454 40.527 38.7378 42.8259 37.9234 46.769C37.8058 47.338 37.7851 48.2263 37.7851 52.7003V57.9624L34.6808 57.9357L32.6406 57.9182C31.9396 57.9121 31.1893 57.7625 30.6211 57.3519C29.1846 56.314 28.9693 54.3916 28.9653 52.6194L28.9482 45.1923L28.9249 35.0716L36.1554 27.8499C43.7651 20.2497 43.5538 20.4422 44.2876 20.4405C44.977 20.4389 44.8714 20.3421 52.3109 27.7967L59.4503 34.9505L59.4937 40.6553L59.5371 46.36L59.7432 46.6915C59.8565 46.8738 60.1077 47.1278 60.3013 47.2559C60.5935 47.4493 60.7502 47.4889 61.224 47.4889C61.908 47.4889 62.3307 47.2687 62.6907 46.7248L62.9237 46.373L62.9487 42.4757L62.9738 38.5784L63.4127 38.973C63.9131 39.4228 64.3872 39.5868 64.9604 39.5081C65.9965 39.3661 66.6389 38.3454 66.3553 37.2919C66.2618 36.945 65.3736 36.0242 56.8895 27.4797C46.8945 17.4133 47.1064 17.6105 45.8607 17.2187C45.1171 16.9848 43.9063 16.9297 43.1689 17.0963Z" fill="black" stroke="#F8E7D2"/>
<rect x="38.3248" y="33.8459" width="11.9831" height="3.38654" rx="1.69327" fill="#F69727"/>
</svg>
