<svg width="924" height="226" viewBox="0 0 924 226" fill="none" xmlns="http://www.w3.org/2000/svg">
<path d="M910.565 211.296C911.133 211.302 911.695 211.191 912.218 210.97C912.74 210.749 913.212 210.424 913.604 210.013C913.995 209.602 914.298 209.116 914.494 208.583C914.689 208.051 914.773 207.484 914.741 206.917C914.741 203.812 912.867 202.328 909.023 202.328H902.812V218.587H905.148V211.5H908.019L908.084 211.586L912.539 218.587H915.038L910.245 211.341L910.565 211.296ZM907.864 209.667H905.155V204.17H908.588C910.362 204.17 912.384 204.46 912.384 206.783C912.384 209.453 910.338 209.667 907.85 209.667M0.461426 33.5086H34.9444V159.114H98.7825V190.937H0.461426V33.5086ZM114.028 84.1961H147.155V190.878H114.028V84.1961ZM130.591 31.1587C134.392 31.1594 138.107 32.287 141.267 34.399C144.426 36.511 146.889 39.5125 148.343 43.0241C149.797 46.5356 150.177 50.3994 149.435 54.1269C148.693 57.8544 146.863 61.2782 144.175 63.9654C141.487 66.6526 138.063 68.4825 134.335 69.2237C130.608 69.9649 126.744 69.5842 123.233 68.1296C119.722 66.675 116.721 64.2119 114.609 61.0517C112.498 57.8916 111.371 54.1763 111.371 50.3757C111.371 47.8518 111.868 45.3526 112.834 43.0209C113.8 40.6891 115.216 38.5705 117 36.786C118.785 35.0015 120.904 33.5861 123.236 32.6205C125.568 31.655 128.067 31.1582 130.591 31.1587M285.728 33.4845H318.855V127.568L356.399 84.1478H397.014L353.535 133.538L396.099 190.923H354.463L319.297 138.189H318.862V190.916H285.735L285.728 33.4845ZM165.523 84.2065H197.335V98.7857H197.787C200.964 93.3418 205.561 88.8632 211.085 85.8281C216.61 82.7929 222.855 81.3153 229.154 81.5529C262.746 81.5529 268.93 103.655 268.93 132.368V190.871H235.803V139.004C235.803 126.623 235.576 110.708 218.55 110.708C201.331 110.708 198.674 124.19 198.674 138.103V190.858H165.547L165.523 84.2065Z" fill="#0A66C2"/>
<path d="M466.776 125.128C466.84 122.441 466.357 119.768 465.357 117.273C464.357 114.777 462.861 112.511 460.96 110.611C459.058 108.71 456.791 107.216 454.294 106.218C451.798 105.22 449.125 104.739 446.438 104.804C440.65 104.444 434.952 106.372 430.573 110.175C426.194 113.977 423.484 119.347 423.028 125.128H466.776ZM494.838 172.403C489.333 179.079 482.412 184.446 474.577 188.117C466.742 191.788 458.189 193.671 449.537 193.629C416.41 193.629 389.888 171.516 389.888 137.275C389.888 103.034 416.406 80.9318 449.537 80.9318C480.5 80.9318 499.917 103.016 499.917 137.275V147.662H423.028C423.986 153.552 427.04 158.898 431.627 162.715C436.215 166.532 442.028 168.562 447.994 168.431C452.709 168.402 457.342 167.194 461.471 164.917C465.6 162.64 469.094 159.367 471.635 155.395L494.838 172.403ZM568.966 109.983C552.402 109.983 542.464 121.043 542.464 137.158C542.464 153.272 552.399 164.342 568.966 164.342C585.533 164.342 595.491 153.3 595.491 137.158C595.491 121.015 585.55 109.983 568.966 109.983ZM625.989 190.858H595.491V176.71H595.039C591.213 181.856 586.251 186.049 580.538 188.963C574.826 191.876 568.518 193.432 562.106 193.508C530.276 193.508 509.31 170.536 509.31 138.051C509.31 108.217 527.864 80.8214 558.365 80.8214C572.075 80.8214 584.88 84.5723 592.393 94.9693H592.827V33.4742H625.985L625.989 190.858ZM849.626 190.92H816.499V139.042C816.499 126.671 816.278 110.746 799.27 110.746C782.016 110.746 779.376 124.224 779.376 138.141V190.916H746.249V84.2341H778.051V98.8134H778.496C781.679 93.3717 786.278 88.8952 791.803 85.8605C797.329 82.8259 803.574 81.3467 809.874 81.5805C843.449 81.5805 849.64 103.665 849.64 132.396L849.626 190.92ZM708.871 69.6514C705.069 69.6521 701.352 68.5253 698.19 66.4135C695.029 64.3017 692.564 61.2998 691.109 57.7874C689.653 54.2749 689.272 50.4097 690.013 46.6805C690.754 42.9513 692.584 39.5256 695.272 36.8366C697.96 34.1476 701.385 32.3161 705.114 31.5737C708.843 30.8312 712.708 31.2112 716.221 32.6656C719.734 34.12 722.737 36.5834 724.85 39.7444C726.963 42.9054 728.091 46.6219 728.092 50.4241C728.092 52.9486 727.595 55.4485 726.63 57.781C725.664 60.1135 724.248 62.233 722.464 64.0184C720.679 65.8038 718.56 67.2202 716.228 68.1868C713.896 69.1533 711.396 69.651 708.871 69.6514M725.435 190.92H692.273V84.2341H725.435V190.92ZM866.141 0.440519H675.627C671.303 0.391722 667.136 2.06164 664.043 5.08333C660.949 8.10502 659.182 12.2313 659.129 16.5553V207.859C659.18 212.185 660.947 216.314 664.04 219.339C667.133 222.364 671.301 224.037 675.627 223.991H866.141C870.476 224.046 874.655 222.377 877.761 219.352C880.866 216.328 882.644 212.194 882.704 207.859V16.5415C882.642 12.2089 880.863 8.07796 877.757 5.05634C874.652 2.03473 870.474 0.369574 866.141 0.426717M908.146 195.085C904.116 195.123 900.265 196.757 897.436 199.627C894.606 202.498 893.029 206.372 893.048 210.403C893.067 214.433 894.682 218.292 897.539 221.135C900.396 223.978 904.262 225.574 908.293 225.574C912.324 225.574 916.19 223.978 919.047 221.135C921.904 218.292 923.519 214.433 923.538 210.403C923.557 206.372 921.98 202.498 919.151 199.627C916.321 196.757 912.47 195.123 908.44 195.085H908.146ZM908.146 223.829C905.503 223.873 902.905 223.132 900.683 221.7C898.461 220.268 896.713 218.209 895.66 215.784C894.608 213.358 894.299 210.675 894.771 208.074C895.244 205.472 896.477 203.069 898.315 201.169C900.153 199.269 902.514 197.956 905.098 197.397C907.682 196.838 910.374 197.058 912.833 198.029C915.292 199 917.408 200.678 918.914 202.852C920.419 205.026 921.246 207.597 921.29 210.24V210.465C921.364 213.932 920.058 217.288 917.658 219.793C915.259 222.298 911.963 223.747 908.495 223.822H908.15" fill="#0A66C2"/>
</svg>
