<svg width="76" height="79" viewBox="0 0 76 79" fill="none" xmlns="http://www.w3.org/2000/svg">
<path fill-rule="evenodd" clip-rule="evenodd" d="M61.0887 10.3054C42.9592 -7.60297 27.5167 0.541548 24.8296 14.1852C22.1425 27.8288 -2.81891 30.553 0.263067 46.6682C3.34504 62.7833 36.916 53.215 36.916 67.8193C36.916 82.4237 75.7308 81.9201 75.7308 62.7833C75.7308 43.6466 79.2183 28.2138 61.0887 10.3054Z" fill="white" fill-opacity="0.2"/>
<mask id="mask0_2938_8174" style="mask-type:alpha" maskUnits="userSpaceOnUse" x="0" y="0" width="76" height="79">
<path fill-rule="evenodd" clip-rule="evenodd" d="M61.0887 10.3054C42.9592 -7.60297 27.5167 0.541548 24.8296 14.1852C22.1425 27.8288 -2.81891 30.553 0.263067 46.6682C3.34504 62.7833 36.916 53.215 36.916 67.8193C36.916 82.4237 75.7308 81.9201 75.7308 62.7833C75.7308 43.6466 79.2183 28.2138 61.0887 10.3054Z" fill="white"/>
</mask>
<g mask="url(#mask0_2938_8174)">
<g opacity="0.2">
<rect width="76.547" height="78.5614" fill="#F9A33E"/>
</g>
</g>
<path d="M25.5 55.3604C25.5 47.7616 31.6601 41.6016 39.2589 41.6016H44.7411C52.3399 41.6016 58.5 47.7616 58.5 55.3604V56C58.5 58.704 56.308 60.896 53.6041 60.896H30.3959C27.692 60.896 25.5 58.704 25.5 56V55.3604Z" stroke="black" stroke-width="3"/>
<circle cx="41.9543" cy="29.0914" r="7.59137" stroke="#F69727" stroke-width="3"/>
</svg>
