<svg width="76" height="80" viewBox="0 0 76 80" fill="none" xmlns="http://www.w3.org/2000/svg">
<path fill-rule="evenodd" clip-rule="evenodd" d="M61.0887 11.3015C42.9592 -6.60687 27.5167 1.53764 24.8296 15.1813C22.1425 28.8249 -2.81891 31.5491 0.263067 47.6643C3.34504 63.7794 36.916 54.2111 36.916 68.8154C36.916 83.4198 75.7308 82.9162 75.7308 63.7794C75.7308 44.6427 79.2183 29.2099 61.0887 11.3015Z" fill="white" fill-opacity="0.2"/>
<mask id="mask0_3018_7213" style="mask-type:alpha" maskUnits="userSpaceOnUse" x="0" y="0" width="76" height="80">
<path fill-rule="evenodd" clip-rule="evenodd" d="M61.0887 11.3015C42.9592 -6.60687 27.5167 1.53764 24.8296 15.1813C22.1425 28.8249 -2.81891 31.5491 0.263067 47.6643C3.34504 63.7794 36.916 54.2111 36.916 68.8154C36.916 83.4198 75.7308 82.9162 75.7308 63.7794C75.7308 44.6427 79.2183 29.2099 61.0887 11.3015Z" fill="white"/>
</mask>
<g mask="url(#mask0_3018_7213)">
<g opacity="0.2">
<rect y="0.996094" width="76.547" height="78.5614" fill="#F9A33E"/>
</g>
</g>
<g clip-path="url(#clip0_3018_7213)">
<path d="M56.6444 57.2883C56.5487 57.0519 56.4952 56.7922 56.4952 56.5209C56.4952 56.2497 56.5487 55.99 56.6444 55.7536C56.7438 55.5172 56.8853 55.3002 57.0613 55.1219L57.0728 55.1064C57.1722 55.0057 57.2869 54.9088 57.4093 54.8352C57.4744 54.7925 57.5432 54.7538 57.6197 54.7189V51.5334H54.3647C54.2653 52.231 53.9364 52.8588 53.4621 53.3432C52.8692 53.9439 52.0469 54.3159 51.1404 54.3159H49.1782V63.0044H54.9347C54.9653 62.954 54.9958 62.9036 55.0303 62.8532C55.0991 62.7525 55.1756 62.6595 55.2598 62.5742C55.4395 62.3921 55.6576 62.2409 55.9023 62.1402C56.1357 62.0433 56.3919 61.989 56.6597 61.989C56.9236 61.989 57.1837 62.0433 57.417 62.1402C57.6618 62.2409 57.876 62.3921 58.0596 62.5742C58.2393 62.7563 58.3885 62.9772 58.488 63.2253C58.5836 63.4617 58.6371 63.7213 58.6371 63.9926C58.6371 64.26 58.5836 64.5158 58.488 64.7599C58.3885 65.0079 58.2393 65.2288 58.0596 65.4109C57.8798 65.5931 57.6618 65.7442 57.417 65.845C57.1837 65.9419 56.9274 65.9961 56.6597 65.9961C56.3996 65.9961 56.151 65.9457 55.9176 65.8489L55.9023 65.845C55.6576 65.7442 55.4434 65.5931 55.2598 65.4109C55.1488 65.2986 55.0494 65.1668 54.9653 65.0312C54.9194 64.9537 54.8773 64.8684 54.8429 64.787H48.2985C48.0537 64.787 47.8357 64.6863 47.6751 64.5235C47.5106 64.3569 47.4111 64.136 47.4111 63.8879V54.3159H43.1273V62.1983C43.1923 62.2332 43.2573 62.2681 43.3223 62.3107C43.4409 62.3843 43.5518 62.4773 43.6475 62.5742C43.8311 62.7602 43.9764 62.9772 44.0758 63.2253C44.1715 63.4617 44.225 63.7213 44.225 63.9926C44.225 64.2561 44.1753 64.508 44.0797 64.7444L44.0758 64.7599C43.9764 65.0079 43.8272 65.2249 43.6475 65.4109C43.4677 65.5931 43.2497 65.7442 43.0049 65.845C42.7716 65.9419 42.5153 65.9961 42.2476 65.9961C41.9836 65.9961 41.7274 65.9419 41.4902 65.845C41.2454 65.7442 41.0274 65.5931 40.8477 65.4109C40.6679 65.2288 40.5187 65.0079 40.4193 64.7599C40.3237 64.5235 40.2701 64.2639 40.2701 63.9926C40.2701 63.7291 40.3198 63.4772 40.4154 63.2408L40.4193 63.2253C40.5187 62.9772 40.6679 62.7602 40.8477 62.5742C40.9433 62.4773 41.0466 62.3921 41.1613 62.3184L41.1766 62.3068C41.2378 62.2719 41.3028 62.2371 41.3678 62.2022V54.3159H35.6535V58.4005C35.6535 58.6485 35.554 58.8694 35.3934 59.0322C35.2327 59.1949 35.0147 59.2957 34.7699 59.2957H30.7156C30.685 59.3577 30.6506 59.4158 30.6123 59.4778C30.5435 59.5825 30.4631 59.6832 30.3713 59.7762L30.356 59.7917C30.1763 59.9739 29.9583 60.125 29.7135 60.2258C29.4801 60.3226 29.2239 60.3769 28.9561 60.3769C28.696 60.3769 28.4474 60.3265 28.2141 60.2296L28.1988 60.2258C27.954 60.125 27.7398 59.9739 27.5562 59.7917C27.3765 59.6096 27.2273 59.3887 27.1278 59.1407C27.0322 58.9043 26.9787 58.6446 26.9787 58.3733C26.9787 58.1059 27.0322 57.8463 27.1278 57.606C27.2273 57.358 27.3765 57.1371 27.5562 56.955C27.7437 56.7767 27.9655 56.6256 28.2103 56.5248C28.4436 56.4279 28.6999 56.3737 28.9676 56.3737C29.2354 56.3737 29.4916 56.4279 29.7249 56.5248C29.9583 56.6256 30.1724 56.769 30.3484 56.9511L30.3637 56.9627C30.4631 57.0635 30.5588 57.1797 30.6314 57.3038C30.6697 57.3696 30.7118 57.4394 30.7462 57.5169H33.8902V54.2422C33.2668 54.1027 32.7083 53.785 32.2761 53.347C31.6986 52.7619 31.3429 51.9636 31.3429 51.0877V48.9602H21.9566V54.7925C22.0063 54.8235 22.0561 54.8546 22.1058 54.8894C22.2052 54.9592 22.2932 55.0367 22.3812 55.1219C22.561 55.3041 22.7101 55.525 22.8096 55.773C22.9052 56.0094 22.9587 56.269 22.9587 56.5403C22.9587 56.8077 22.9052 57.0712 22.8096 57.3076C22.7101 57.5557 22.561 57.7727 22.3812 57.9587C22.2014 58.1408 21.9834 58.292 21.7386 58.3927C21.5053 58.4896 21.249 58.5439 20.9813 58.5439C20.7174 58.5439 20.4649 58.4896 20.224 58.3927C19.9792 58.292 19.7611 58.1408 19.5814 57.9587C19.4016 57.7766 19.2524 57.5557 19.153 57.3076C19.0535 57.0635 19 56.8038 19 56.5326C19 56.269 19.0497 56.0172 19.1453 55.7808L19.1492 55.7653C19.2486 55.5172 19.3978 55.3002 19.5776 55.1142C19.6885 55.0018 19.8185 54.9011 19.9524 54.8158C20.0251 54.7693 20.113 54.7267 20.1934 54.6918V48.065C20.1934 47.817 20.2928 47.5961 20.4535 47.4333C20.6179 47.2667 20.8359 47.1659 21.0807 47.1659H31.3429V42.8255H22.7522C22.7178 42.8914 22.6833 42.9573 22.6413 43.0232C22.5686 43.1433 22.4768 43.2557 22.3812 43.3526C22.1976 43.5386 21.9834 43.6859 21.7386 43.7866C21.5053 43.8835 21.249 43.9377 20.9813 43.9377C20.7212 43.9377 20.4726 43.8874 20.2393 43.7905L20.224 43.7866C19.9792 43.6859 19.765 43.5347 19.5814 43.3526C19.4016 43.1704 19.2524 42.9495 19.153 42.7015C19.0574 42.4651 19.0038 42.2055 19.0038 41.9342C19.0038 41.6668 19.0574 41.4072 19.153 41.1669C19.2524 40.9189 19.4016 40.698 19.5814 40.5158C19.7611 40.3337 19.9792 40.1826 20.224 40.0818C20.4611 39.981 20.7135 39.9268 20.9851 39.9268C21.2452 39.9268 21.4938 39.9772 21.7271 40.074L21.7424 40.0779C21.9872 40.1787 22.2014 40.3298 22.385 40.512C22.4806 40.6088 22.5648 40.7135 22.6413 40.8297L22.6528 40.8452C22.6872 40.9072 22.7216 40.9731 22.756 41.039H31.3429V35.6484C31.3429 35.5167 31.3505 35.3849 31.3658 35.2531H26.5006C26.2558 35.2531 26.0378 35.1524 25.8771 34.9896C25.7165 34.8268 25.617 34.606 25.617 34.3579V30.2501C25.5558 30.2191 25.4985 30.1842 25.4373 30.1454C25.334 30.0757 25.2345 29.9943 25.1427 29.9013L25.1274 29.8858C24.9477 29.7037 24.7985 29.4828 24.6991 29.2347C24.6034 28.9984 24.5499 28.7387 24.5499 28.4674C24.5499 28.2039 24.5996 27.952 24.6952 27.7156L24.6991 27.7001C24.7985 27.4521 24.9477 27.2351 25.1274 27.0491C25.3072 26.8669 25.5252 26.7158 25.77 26.615C26.0033 26.5181 26.2596 26.4639 26.5273 26.4639C26.7913 26.4639 27.0475 26.5181 27.2847 26.615C27.5295 26.7158 27.7475 26.8669 27.9272 27.0491C28.1032 27.239 28.2524 27.4637 28.3518 27.7117C28.4474 27.9481 28.501 28.2078 28.501 28.4791C28.501 28.7503 28.4474 29.01 28.3518 29.2464C28.2524 29.4828 28.1108 29.6998 27.9349 29.8781L27.9234 29.8936C27.824 29.9943 27.7092 30.0912 27.583 30.1648C27.518 30.2036 27.4491 30.2462 27.3726 30.2811V33.4666H32.1729V33.4899C32.2035 33.455 32.2379 33.4201 32.2685 33.3891C32.8613 32.7884 33.6837 32.4164 34.5902 32.4164H36.4299V21.9956H30.6812C30.6506 22.046 30.62 22.0964 30.5855 22.1468C30.5167 22.2475 30.4402 22.3367 30.356 22.4258C30.1763 22.6079 29.9583 22.7591 29.7135 22.8598C29.4801 22.9567 29.2239 23.011 28.9561 23.011C28.6922 23.011 28.4321 22.9567 28.1988 22.8598C27.954 22.7591 27.7398 22.6079 27.5562 22.4258C27.3765 22.2437 27.2273 22.0228 27.1278 21.7747C27.0322 21.5345 26.9787 21.2787 26.9787 21.0035C26.9787 20.7361 27.0322 20.4804 27.1278 20.2362C27.2273 19.9882 27.3765 19.7673 27.5562 19.5852C27.736 19.403 27.954 19.2519 28.1988 19.1511C28.4321 19.0543 28.6884 19 28.9561 19C29.2162 19 29.4648 19.0504 29.6982 19.1473L29.7135 19.1511C29.9583 19.2519 30.1724 19.403 30.356 19.5852C30.467 19.6976 30.5664 19.8293 30.6506 19.965C30.6965 20.0386 30.7385 20.1277 30.7768 20.2091H37.3135C37.5583 20.2091 37.7763 20.3099 37.9369 20.4726C38.1014 20.6393 38.2008 20.8602 38.2008 21.1082V32.4164H42.4847V22.8017C42.4197 22.7668 42.3547 22.7319 42.2896 22.6893C42.1711 22.6157 42.0601 22.5227 41.9645 22.4258C41.7809 22.2398 41.6356 22.0228 41.5361 21.7747C41.4405 21.5383 41.387 21.2787 41.387 21.0074C41.387 20.7439 41.4367 20.492 41.5323 20.2556L41.5361 20.2401C41.6356 19.9921 41.7847 19.7751 41.9645 19.5891C42.1443 19.4069 42.3623 19.2558 42.6071 19.155C42.8404 19.0581 43.0967 19.0039 43.3644 19.0039C43.6283 19.0039 43.8846 19.0581 44.1217 19.155C44.3665 19.2558 44.5846 19.4069 44.7643 19.5891C44.9441 19.7712 45.0933 19.9921 45.1927 20.2401C45.2883 20.4765 45.3419 20.7361 45.3419 21.0074C45.3419 21.2709 45.2922 21.5228 45.1965 21.7592L45.1927 21.7747C45.0933 22.0228 44.9441 22.2398 44.7643 22.4258C44.6687 22.5227 44.5654 22.6079 44.4507 22.6854L44.4354 22.6971C44.3742 22.7319 44.3092 22.7668 44.2441 22.8017V32.4125H49.9547V26.5995C49.9547 26.3515 50.0541 26.1306 50.2148 25.9678C50.3754 25.8051 50.5934 25.7043 50.8382 25.7043H54.8964C54.927 25.6423 54.9614 25.5842 54.9997 25.5222C55.0685 25.4175 55.1488 25.3168 55.2406 25.2238L55.2559 25.2083C55.4357 25.0261 55.6537 24.875 55.8985 24.7742C56.1318 24.6774 56.3881 24.6231 56.6558 24.6231C56.9159 24.6231 57.1646 24.6735 57.3979 24.7704L57.4132 24.7742C57.658 24.875 57.8722 25.0261 58.0557 25.2083C58.2355 25.3904 58.3847 25.6113 58.4841 25.8593C58.5798 26.0957 58.6333 26.3554 58.6333 26.6266C58.6333 26.894 58.5798 27.1537 58.4841 27.394C58.3847 27.642 58.2355 27.8629 58.0557 28.045C57.8645 28.2233 57.6465 28.3744 57.4017 28.4752C57.1684 28.5721 56.9121 28.6263 56.6444 28.6263C56.3766 28.6263 56.1204 28.5721 55.887 28.4752C55.6537 28.3744 55.4395 28.231 55.2636 28.0528L55.2483 28.0411C55.1488 27.9404 55.0532 27.8241 54.9806 27.7001C54.9385 27.6342 54.9002 27.5645 54.8658 27.487H51.7218V32.4629C52.3988 32.583 53.0031 32.9163 53.4659 33.3852C54.0435 33.9704 54.3992 34.7687 54.3992 35.6445V36.0437H63.0434V30.2113C62.9937 30.1803 62.9439 30.1493 62.8942 30.1144C62.7948 30.0447 62.7068 29.9672 62.6226 29.8819C62.4429 29.6998 62.2937 29.4789 62.1943 29.2309C62.0986 28.9945 62.0451 28.7348 62.0451 28.4636C62.0451 28.1962 62.0986 27.9326 62.1943 27.6962C62.2937 27.4482 62.4429 27.2312 62.6226 27.0452C62.8024 26.863 63.0204 26.7119 63.2652 26.6111C63.4985 26.5143 63.7548 26.46 64.0225 26.46C64.2865 26.46 64.5427 26.5143 64.7799 26.6111C65.0247 26.7119 65.2427 26.863 65.4224 27.0452C65.6022 27.2273 65.7514 27.4482 65.8508 27.6962C65.9465 27.9326 66 28.1923 66 28.4636C66 28.7271 65.9503 28.979 65.8547 29.2154L65.8508 29.2309C65.7514 29.4789 65.6022 29.6959 65.4224 29.8819C65.3115 29.9943 65.1815 30.0951 65.0476 30.1803C64.9711 30.2268 64.887 30.2695 64.8066 30.3082V36.9312C64.8066 37.1792 64.7072 37.4001 64.5466 37.5628C64.3821 37.7295 64.1641 37.8302 63.9193 37.8302H54.3992V42.1706H62.2478C62.2822 42.1047 62.3167 42.0388 62.3587 41.973C62.4352 41.8528 62.5232 41.7404 62.6188 41.6436C62.8024 41.4575 63.0166 41.3103 63.2614 41.2095C63.4947 41.1126 63.751 41.0584 64.0187 41.0584C64.2788 41.0584 64.5274 41.1088 64.7607 41.2056L64.776 41.2095C65.0208 41.3103 65.235 41.4614 65.4186 41.6436C65.5984 41.8257 65.7476 42.0466 65.847 42.2946C65.9426 42.531 65.9962 42.7906 65.9962 43.0619C65.9962 43.3293 65.9426 43.589 65.847 43.8292C65.7476 44.0773 65.5984 44.2982 65.4186 44.4803C65.2389 44.6624 65.0208 44.8136 64.776 44.9143C64.5427 45.0112 64.2865 45.0655 64.0187 45.0655C63.7586 45.0655 63.51 45.0151 63.2767 44.9182L63.2614 44.9143C63.0166 44.8136 62.8024 44.6624 62.6188 44.4803C62.5232 44.3834 62.439 44.2788 62.3626 44.1625L62.3511 44.147C62.3167 44.085 62.2822 44.0191 62.2478 43.9532H54.3992V49.7391H58.4994C58.7442 49.7391 58.9622 49.8399 59.1229 50.0026C59.2835 50.1654 59.383 50.3863 59.383 50.6343V54.746C59.4442 54.777 59.5015 54.8119 59.5627 54.8545C59.666 54.9243 59.7655 55.0057 59.8573 55.0987L59.8726 55.1142C60.0523 55.2963 60.2015 55.5172 60.3009 55.7653C60.3966 56.0017 60.4501 56.2613 60.4501 56.5326C60.4501 56.7961 60.4004 57.048 60.3048 57.2844L60.3009 57.2999C60.2015 57.5479 60.0523 57.7649 59.8726 57.9509C59.6928 58.1331 59.4748 58.2842 59.23 58.385C58.9967 58.4819 58.7404 58.5361 58.4727 58.5361C58.2087 58.5361 57.9525 58.4819 57.7153 58.385C57.4705 58.2842 57.2525 58.1331 57.0728 57.9509C56.8968 57.761 56.7438 57.5363 56.6444 57.2883ZM51.1442 34.1448H34.594C34.2153 34.1448 33.8673 34.3037 33.6148 34.5633C33.3433 34.8385 33.175 35.2221 33.175 35.6484V51.0839C33.175 51.5101 33.3433 51.8938 33.6148 52.1689C33.8711 52.4286 34.2153 52.5875 34.594 52.5875H51.1442C51.5229 52.5875 51.8709 52.4286 52.1234 52.1689C52.3949 51.8938 52.5632 51.5101 52.5632 51.0839V35.6484C52.5632 35.2221 52.3949 34.8385 52.1234 34.5633C51.8709 34.3037 51.5229 34.1448 51.1442 34.1448Z" fill="black"/>
<path d="M39.4595 39.207H46.283C46.8147 39.207 47.2469 39.6449 47.2469 40.1836V46.5508C47.2469 47.0895 46.8147 47.5274 46.283 47.5274H39.4595C38.9278 47.5274 38.4956 47.0895 38.4956 46.5508V40.1836C38.4956 39.6449 38.9278 39.207 39.4595 39.207Z" fill="#F69727"/>
</g>
<defs>
<clipPath id="clip0_3018_7213">
<rect width="47" height="47" fill="white" transform="translate(19 19)"/>
</clipPath>
</defs>
</svg>
